<svg width="170" height="50" viewBox="0 0 170 50" fill="none" xmlns="http://www.w3.org/2000/svg">
<path d="M16.9861 14.0627C15.6994 14.0606 14.5762 14.0588 13.5687 14.5475C12.5687 15.0325 11.8607 15.915 11.0386 16.9398C10.6522 17.4198 9.67517 18.6342 9.41013 19.0609C9.1109 19.5427 8.85419 20.1213 8.85419 20.8339C8.85419 21.5464 9.1109 22.125 9.41013 22.6068C9.67516 23.0335 10.6522 24.2479 11.0386 24.7279C11.8607 25.7527 12.5687 26.6352 13.5687 27.1202C14.5762 27.6089 15.6994 27.6071 16.9861 27.605L19.5834 27.6048C20.1727 27.6047 20.4673 27.6047 20.6503 27.4217C20.8334 27.2386 20.8334 26.944 20.8334 26.3548L20.8334 15.3127C20.8334 14.7235 20.8334 14.4289 20.6503 14.2458C20.4672 14.0627 20.1726 14.0627 19.5834 14.0627H16.9861Z" fill="#047857"/>
<path d="M33.0139 22.3961C34.3007 22.394 35.4238 22.3921 36.4313 22.8808C37.4313 23.3658 38.1393 24.2483 38.9614 25.2732C39.3478 25.7531 40.3249 26.9675 40.5899 27.3942C40.8891 27.876 41.1459 28.4547 41.1459 29.1672C41.1459 29.8797 40.8891 30.4584 40.5899 30.9402C40.3249 31.3669 39.3478 32.5813 38.9614 33.0612C38.1393 34.0861 37.4313 34.9686 36.4313 35.4536C35.4238 35.9423 34.3007 35.9404 33.0139 35.9383L30.4166 35.9381C29.8274 35.9381 29.5328 35.9381 29.3497 35.755C29.1667 35.5719 29.1667 35.2773 29.1667 34.6881L29.1667 23.6461C29.1667 23.0568 29.1667 22.7622 29.3497 22.5791C29.5328 22.3961 29.8274 22.3961 30.4167 22.3961H33.0139Z" fill="#047857"/>
<path d="M33.0139 3.12524C34.3007 3.12314 35.4238 3.1213 36.4313 3.60996C37.4313 4.09497 38.1393 4.97749 38.9614 6.00235C39.3478 6.48227 40.3249 7.69666 40.5899 8.12339C40.8891 8.60516 41.1458 9.18384 41.1458 9.89635C41.1458 10.6089 40.8891 11.1875 40.5899 11.6693C40.3249 12.096 39.3478 13.3104 38.9614 13.7904C38.1393 14.8152 37.4313 15.6977 36.4313 16.1827C35.4238 16.6714 34.3007 16.6696 33.0139 16.6675H33.0139L25 16.6672L25 3.12524L33.0139 3.12524Z" fill="#047857"/>
<path fill-rule="evenodd" clip-rule="evenodd" d="M25 3.12497C26.1506 3.12497 27.0834 4.05771 27.0834 5.2083L27.0834 42.7083L31.25 42.7083C32.4006 42.7083 33.3334 43.641 33.3334 44.7916C33.3334 45.9422 32.4006 46.875 31.25 46.875L18.75 46.875C17.5994 46.875 16.6667 45.9422 16.6667 44.7916C16.6667 43.641 17.5994 42.7083 18.75 42.7083H22.9167L22.9167 5.2083C22.9167 4.05771 23.8494 3.12497 25 3.12497Z" fill="#047857"/>
<path d="M84.352 25.128C84.352 32.36 79.584 37.384 72.704 37.384C65.856 37.384 61.152 32.392 61.152 25.16C61.152 17.928 65.888 12.904 72.736 12.904C79.616 12.904 84.352 17.896 84.352 25.128ZM78.88 25.128C78.88 20.616 76.576 17.896 72.768 17.896C68.928 17.896 66.624 20.616 66.624 25.128C66.624 29.672 68.928 32.392 72.768 32.392C76.576 32.392 78.88 29.608 78.88 25.128ZM92.284 37H87.356V12.872H92.284V37ZM102.445 37H97.517V25.096H94.477V21H97.517V16.04H102.445V21H105.485V25.096H102.445V37ZM118.324 21H123.252V37H118.612L118.292 35.208C117.3 36.52 115.316 37.416 113.396 37.416C109.748 37.416 107.508 34.984 107.508 31.048V21H112.436V29.256C112.436 31.88 113.332 33.032 115.348 33.032C117.46 33.032 118.324 31.944 118.324 29.32V21ZM131.878 37H126.95V12.872H131.878V26.76L137.062 21H143.238L137.222 27.336L143.046 37H137.35L133.766 31.016L131.878 33V37ZM149.469 37.416C146.077 37.416 143.965 35.432 143.965 32.296C143.965 29.352 146.045 27.528 149.885 27.24L154.365 26.888V26.632C154.365 25.064 153.405 24.232 151.645 24.232C149.565 24.232 148.445 25.032 148.445 26.472H144.349C144.349 22.856 147.325 20.488 151.901 20.488C156.541 20.488 159.165 23.08 159.165 27.656V37H154.813L154.493 34.888C153.981 36.36 151.869 37.416 149.469 37.416ZM151.197 33.768C153.085 33.768 154.397 32.84 154.397 31.016V30.152L151.901 30.376C149.757 30.568 148.989 31.048 148.989 32.072C148.989 33.224 149.693 33.768 151.197 33.768ZM165.132 18.504C163.564 18.504 162.316 17.256 162.316 15.688C162.316 14.12 163.564 12.904 165.132 12.904C166.668 12.904 167.916 14.12 167.916 15.688C167.916 17.256 166.668 18.504 165.132 18.504ZM162.7 37V21H167.628V37H162.7Z" fill="#047857"/>
</svg>
